<svg width="23" height="23" viewBox="0 0 23 23" fill="none" xmlns="http://www.w3.org/2000/svg">
<path d="M4.79167 20.125C4.26458 20.125 3.80938 19.9413 3.42604 19.574C3.05868 19.1906 2.875 18.7354 2.875 18.2083V4.79167C2.875 4.26458 3.05868 3.81736 3.42604 3.45C3.80938 3.06667 4.26458 2.875 4.79167 2.875H18.2083C18.7354 2.875 19.1826 3.06667 19.55 3.45C19.9333 3.81736 20.125 4.26458 20.125 4.79167V18.2083C20.125 18.7354 19.9333 19.1906 19.55 19.574C19.1826 19.9413 18.7354 20.125 18.2083 20.125H4.79167ZM11.5 15.3333C12.1069 15.3333 12.658 15.1576 13.1531 14.8063C13.6483 14.4549 13.9917 13.9917 14.1833 13.4167H18.2083V4.79167H4.79167V13.4167H8.81667C9.00833 13.9917 9.35174 14.4549 9.84688 14.8063C10.342 15.1576 10.8931 15.3333 11.5 15.3333Z" fill="#EFECE9"/>
</svg>
