<svg width="22" height="22" viewBox="0 0 22 22" fill="none" xmlns="http://www.w3.org/2000/svg">
<path d="M3.6665 17.4166V15.5833H5.49984V9.16658C5.49984 7.89853 5.88178 6.77561 6.64567 5.79784C7.40956 4.80478 8.40262 4.15547 9.62484 3.84992V3.20825C9.62484 2.82631 9.7547 2.50547 10.0144 2.24575C10.2894 1.97075 10.6179 1.83325 10.9998 1.83325C11.3818 1.83325 11.7026 1.97075 11.9623 2.24575C12.2373 2.50547 12.3748 2.82631 12.3748 3.20825V3.84992C13.5971 4.15547 14.5901 4.80478 15.354 5.79784C16.1179 6.77561 16.4998 7.89853 16.4998 9.16658V15.5833H18.3332V17.4166H3.6665ZM10.9998 20.1666C10.4957 20.1666 10.0603 19.9909 9.69359 19.6395C9.3422 19.2728 9.1665 18.8374 9.1665 18.3333H12.8332C12.8332 18.8374 12.6498 19.2728 12.2832 19.6395C11.9318 19.9909 11.504 20.1666 10.9998 20.1666ZM7.33317 15.5833H14.6665V9.16658C14.6665 8.15825 14.3075 7.29506 13.5894 6.577C12.8714 5.85895 12.0082 5.49992 10.9998 5.49992C9.9915 5.49992 9.12831 5.85895 8.41025 6.577C7.6922 7.29506 7.33317 8.15825 7.33317 9.16658V15.5833Z" fill="#EFECE9"/>
</svg>
